<?xml version="1.0" encoding="UTF-8" standalone="no"?>
<!-- Created with Inkscape (http://www.inkscape.org/) -->

<svg
   version="1.1"
   id="svg747"
   width="437.96329"
   height="252.125"
   viewBox="0 0 437.96329 252.125"
   sodipodi:docname="1.svg"
   inkscape:version="1.2.2 (b0a8486541, 2022-12-01)"
   xmlns:inkscape="http://www.inkscape.org/namespaces/inkscape"
   xmlns:sodipodi="http://sodipodi.sourceforge.net/DTD/sodipodi-0.dtd"
   xmlns="http://www.w3.org/2000/svg"
   xmlns:svg="http://www.w3.org/2000/svg">
  <defs
     id="defs751" />
  <sodipodi:namedview
     id="namedview749"
     pagecolor="#ffffff"
     bordercolor="#000000"
     borderopacity="0.25"
     inkscape:showpageshadow="2"
     inkscape:pageopacity="0.0"
     inkscape:pagecheckerboard="0"
     inkscape:deskcolor="#d1d1d1"
     showgrid="false"
     inkscape:zoom="0.32593203"
     inkscape:cx="912.767"
     inkscape:cy="860.60888"
     inkscape:window-width="1398"
     inkscape:window-height="831"
     inkscape:window-x="1962"
     inkscape:window-y="32"
     inkscape:window-maximized="1"
     inkscape:current-layer="g753" />
  <g
     inkscape:groupmode="layer"
     inkscape:label="Image"
     id="g753"
     transform="translate(-435.11899,-670.78186)">
    <path
       id="rect825"
       style="fill:#2dd4bf;fill-opacity:1;stroke-width:0.974333"
       d="m 435.11899,670.78185 0.2656,26.0371 0.2676,26.0351 104.5,0.082 c 57.475,0.046 107.87396,0.496 111.99806,1 15.967,1.9516 29.5033,11.69 36.373,26.166 4.1789,8.806 5.6289,15.393 5.6289,25.5762 0,9.7257 -1.9426,17.46 -6.9433,27.6602 -4.7028,9.5926 -9.8849,15.491 -36.0567,41.0274 -20.84716,20.3408 -25.96646,23.9107 -37.80076,26.371 -3.5222,0.7323 -25.7381,1.1016 -66.25,1.1016 h -60.9492 v -24.5 -24.5 h 68 68 v -25.5 -25.5 h -92.5 c -50.8749,0 -92.8375,-0.1125 -93.25,-0.25 -0.4125,-0.1375 -0.8648,33.8538 -1.0058,75.5352 l -0.2579,75.7832 93.2579,-0.3008 c 92.2323,-0.2982 93.3385,-0.3264 100.9277,-2.4746 21.45996,-6.0748 32.84296,-13.189 53.48436,-33.4278 l 15.1601,-14.8652 h 43.5899 43.5898 v 20.0508 c 0,22.1142 0.5469,24.6309 5.9668,27.4336 1.6134,0.8343 4.8531,1.5157 7.1992,1.5157 h 4.2657 l 33.8554,-33.7501 c 18.6203,-18.5624 34.4973,-34.964 35.2832,-36.4492 1.9682,-3.7195 1.7839,-9.7071 -0.4101,-13.3047 -2.1585,-3.5395 -65.0612,-65.3157 -68.3867,-67.1621 -5.1905,-2.882 -12.4123,-0.6149 -15.8145,4.9648 -1.766,2.8964 -1.9518,5.131 -1.9551,23.4512 v 20.25 h -24.1074 c -22.5804,0 -24.0597,-0.1109 -23.3516,-1.75 6.6771,-15.4563 9.459,-29.0917 9.459,-46.377 0,-47.9326 -27.9345,-84.8576 -73.5,-97.1543 -7.9451,-2.1441 -8.7925,-2.161 -123.26756,-2.4668 z" />
  </g>
</svg>
