<?xml version="1.0" encoding="UTF-8" standalone="no"?>
<!-- Created with Inkscape (http://www.inkscape.org/) -->

<svg
   version="1.1"
   id="svg747"
   width="1711.5239"
   height="278.84204"
   viewBox="0 0 1711.5239 278.84204"
   sodipodi:docname="1.svg"
   inkscape:version="1.2.2 (b0a8486541, 2022-12-01)"
   xmlns:inkscape="http://www.inkscape.org/namespaces/inkscape"
   xmlns:sodipodi="http://sodipodi.sourceforge.net/DTD/sodipodi-0.dtd"
   xmlns="http://www.w3.org/2000/svg"
   xmlns:svg="http://www.w3.org/2000/svg">
  <defs
     id="defs751" />
  <sodipodi:namedview
     id="namedview749"
     pagecolor="#ffffff"
     bordercolor="#000000"
     borderopacity="0.25"
     inkscape:showpageshadow="2"
     inkscape:pageopacity="0.0"
     inkscape:pagecheckerboard="0"
     inkscape:deskcolor="#d1d1d1"
     showgrid="false"
     inkscape:zoom="0.32593203"
     inkscape:cx="705.6686"
     inkscape:cy="860.60888"
     inkscape:window-width="1398"
     inkscape:window-height="831"
     inkscape:window-x="1962"
     inkscape:window-y="32"
     inkscape:window-maximized="1"
     inkscape:current-layer="g753" />
  <g
     inkscape:groupmode="layer"
     inkscape:label="Image"
     id="g753"
     transform="translate(-38.760132,-983.91223)">
    <path
       id="rect825-3-2-7"
       style="fill:#2dd4bf;fill-opacity:1;stroke-width:0.974333"
       d="m 38.760131,983.91226 0.2656,26.03724 0.2676,26.0351 104.499999,0.082 c 57.475,0.046 107.874,0.4959 111.9981,1 15.967,1.9516 29.5033,11.6899 36.373,26.166 4.1789,8.806 5.6289,15.393 5.6289,25.5762 0,9.7257 -1.9426,17.46 -6.9433,27.6602 -4.7028,9.5925 -9.8849,15.491 -36.0567,41.0273 -20.8472,20.3408 -25.9665,23.9107 -37.8008,26.3711 -3.5222,0.7322 -25.7381,1.1016 -66.25,1.1016 H 89.793331 v -24.5 -24.5 h 67.999999 68 v -25.5 -25.5 h -92.5 c -50.874899,0 -92.837499,-0.1125 -93.249999,-0.25 -0.4125,-0.1375 -0.8648,33.8538 -1.0058,75.5351 l -0.2579,75.7832 93.257899,-0.3008 c 92.2323,-0.2982 93.3385,-0.3264 100.9277,-2.4746 21.46,-6.0747 32.843,-13.189 53.4844,-33.4277 l 15.1601,-14.8652 h 43.5899 43.5898 v 20.0508 c 0,22.1142 0.5469,24.6308 5.9668,27.4335 1.6134,0.8343 4.8531,1.5157 7.1992,1.5157 h 4.2657 l 33.8554,-33.75 c 18.6203,-18.5624 34.4973,-34.964 35.2832,-36.4492 1.9682,-3.7196 1.7839,-9.7072 -0.4101,-13.3048 -2.1585,-3.5394 -65.0612,-65.3156 -68.3867,-67.1621 -5.1905,-2.8819 -12.4123,-0.6148 -15.8145,4.9649 -1.766,2.8963 -1.9518,5.131 -1.9551,23.4512 v 20.25 h -24.1074 c -22.5804,0 -24.0597,-0.1109 -23.3516,-1.75 6.6771,-15.4563 9.459,-29.0918 9.459,-46.377 0,-47.9326 -27.9345,-84.85764 -73.5,-97.15434 -7.9451,-2.1441 -8.7925,-2.161 -123.2676,-2.4668 z"
       inkscape:export-filename="light.svg"
       inkscape:export-xdpi="300"
       inkscape:export-ydpi="300" />
    <g
       aria-label="EasyDock"
       id="text30776-3-0"
       style="font-weight:600;font-size:266.667px;line-height:0;font-family:'Inter Display';-inkscape-font-specification:'Inter Display Semi-Bold';fill:#2dd4bf">
      <path
         d="m 558.22544,1208.3271 h 134.76579 v -29.8177 H 592.60048 v -54.0365 h 92.83866 v -29.2969 h -92.83866 v -51.0418 h 100.39075 v -29.8177 H 558.22544 Z"
         id="path2417" />
      <path
         d="m 758.22568,1210.5407 c 22.39586,0 33.98442,-9.375 40.49484,-21.6146 h 0.52084 v 19.401 h 32.2917 v -93.7501 c 0,-28.6458 -21.22398,-46.4844 -57.03132,-46.4844 -35.93754,0 -58.3334,18.099 -59.8959,45.4428 h 31.64066 c 0.91146,-11.5886 11.58855,-19.9219 27.6042,-19.9219 15.75523,0 25.13024,8.3333 25.13024,20.0521 v 1.0416 c 0,9.3751 -8.72397,9.7657 -34.24484,12.6303 -28.38545,2.9948 -54.03652,10.6771 -54.03652,41.9271 0,27.474 20.18232,41.2761 47.5261,41.2761 z m 8.07293,-24.349 c -14.32294,0 -23.56774,-6.3802 -23.56774,-17.1875 0,-12.5 11.97918,-17.5782 26.0417,-19.6615 13.54168,-2.0833 26.30211,-4.1667 30.33858,-6.7708 v 14.8437 c 0,16.0157 -11.32814,28.7761 -32.81254,28.7761 z"
         id="path2419" />
      <path
         d="m 914.47587,1211.5824 c 33.98442,0 58.33341,-16.9271 58.33341,-43.7501 0,-20.1823 -12.63023,-32.1615 -39.8438,-37.8907 l -24.73961,-5.0781 c -11.45835,-2.474 -18.22919,-7.5521 -18.22919,-15.7552 0,-9.375 8.85417,-16.6667 23.30732,-16.6667 14.97397,0 25.00003,8.9844 25.26044,21.224 h 30.85942 c -0.78125,-28.2553 -23.56774,-45.8334 -56.90111,-45.8334 -33.5938,0 -55.33861,17.0573 -55.33861,42.3177 0,20.8334 13.8021,34.2449 40.10421,39.7136 l 23.43753,4.8177 c 11.58856,2.474 18.75002,7.2917 18.75002,15.6251 0,9.7656 -9.63542,16.6667 -25.52086,16.6667 -16.40627,0 -26.0417,-7.6823 -27.47399,-21.0938 h -32.42192 c 2.08334,29.5573 26.95316,45.7032 60.41674,45.7032 z"
         id="path2421" />
      <path
         d="m 994.29367,1262.7543 h 21.48443 c 19.9219,0 33.4636,-10.2865 41.6667,-31.7709 l 61.4584,-160.1564 h -34.375 l -25.1303,71.6147 c -3.5156,10.1562 -6.7708,20.3125 -9.8958,30.4687 -3.125,-10.1562 -6.5105,-20.3125 -9.8959,-30.4687 l -25.2604,-71.6147 h -34.76569 l 52.99489,136.7189 -5.0782,13.2813 c -3.9062,10.8073 -8.0729,15.2344 -16.9271,15.2344 h -16.27603 z"
         id="path2423" />
      <path
         d="m 1204.7106,1208.3271 c 59.3751,0 94.922,-37.2396 94.922,-97.2657 0,-59.6355 -35.8073,-96.7449 -93.4897,-96.7449 h -66.9272 v 194.0106 z M 1173.5908,1178.9 v -135.1564 h 30.3386 c 40.8854,0 60.9375,24.6094 60.9375,67.3178 0,43.099 -19.7917,67.8386 -61.9792,67.8386 z"
         id="path2425" />
      <path
         d="m 1385.0493,1211.4522 c 40.4949,0 67.8387,-29.0365 67.8387,-71.7449 0,-42.7084 -27.3438,-72.0053 -67.8387,-72.0053 -40.4948,0 -67.8386,29.2969 -67.8386,72.0053 0,42.7084 27.3438,71.7449 67.8386,71.7449 z m 0,-27.474 c -21.224,0 -34.6354,-16.7969 -34.6354,-44.2709 0,-27.6042 13.5417,-44.5313 34.6354,-44.5313 20.9636,0 34.5053,17.0573 34.5053,44.5313 0,27.3438 -13.4115,44.2709 -34.5053,44.2709 z"
         id="path2427" />
      <path
         d="m 1536.3517,1211.4522 c 34.7656,0 60.0261,-22.3959 62.3698,-52.4741 h -32.4219 c -3.125,15.2344 -12.3698,25.1303 -29.5573,25.1303 -21.6146,0 -34.3751,-17.3178 -34.3751,-44.4011 0,-27.2136 12.8907,-44.6615 34.3751,-44.6615 17.0573,0 27.3438,10.2864 29.8177,25 h 32.1615 c -2.8646,-30.599 -27.8646,-52.3438 -62.3698,-52.3438 -40.2345,0 -67.1876,29.5573 -67.1876,72.0053 0,42.4479 26.9531,71.7449 67.1876,71.7449 z"
         id="path2429" />
      <path
         d="m 1620.7267,1208.3271 h 32.8125 v -45.9635 l 12.5,-12.8907 45.0522,58.8542 h 39.1927 l -59.2449,-78.125 55.8595,-59.3751 h -39.4532 l -53.5157,55.7292 h -0.3906 v -112.2397 h -32.8125 z"
         id="path2431" />
    </g>
  </g>
</svg>
